<?xml version="1.0" encoding="utf-8"?>
<!-- Generator: Adobe Illustrator 20.1.0, SVG Export Plug-In . SVG Version: 6.00 Build 0)  -->
<svg version="1.1" id="Layer_1" xmlns="http://www.w3.org/2000/svg" xmlns:xlink="http://www.w3.org/1999/xlink" x="0px" y="0px"
	 viewBox="0 0 192 178.8" style="enable-background:new 0 0 192 178.8;" xml:space="preserve">
<style type="text/css">
	.st0{fill:#FFD15D;}
	.st1{fill:#DEDEDD;}
	.st2{fill:#475059;}
	.st3{fill:#5FE0ED;}
	.st4{fill:#FFFFFF;}
	.st5{fill:#48515A;}
</style>
<title>Color line, cloud databse illustration, icon</title>
<desc>Color line, cloud databse illustration, icon, background and graphics. The illustration is colorful, flat, vector, pixel perfect, suitable for web and print. It is linear stokes and fills.</desc>
<metadata><?xpacket begin="﻿" id="W5M0MpCehiHzreSzNTczkc9d"?>
<x:xmpmeta xmlns:x="adobe:ns:meta/" x:xmptk="Adobe XMP Core 5.6-c111 79.158366, 2015/09/25-01:12:00        ">
   <rdf:RDF xmlns:rdf="http://www.w3.org/1999/02/22-rdf-syntax-ns#">
      <rdf:Description rdf:about=""
            xmlns:dc="http://purl.org/dc/elements/1.1/"
            xmlns:xmp="http://ns.adobe.com/xap/1.0/"
            xmlns:xmpMM="http://ns.adobe.com/xap/1.0/mm/"
            xmlns:stEvt="http://ns.adobe.com/xap/1.0/sType/ResourceEvent#">
         <dc:title>
            <rdf:Alt>
               <rdf:li xml:lang="x-default">Color line, cloud databse illustration, icon</rdf:li>
            </rdf:Alt>
         </dc:title>
         <dc:description>
            <rdf:Alt>
               <rdf:li xml:lang="x-default">Color line, cloud databse illustration, icon, background and graphics. The illustration is colorful, flat, vector, pixel perfect, suitable for web and print. It is linear stokes and fills.</rdf:li>
            </rdf:Alt>
         </dc:description>
         <dc:subject>
            <rdf:Bag>
               <rdf:li>Cloud</rdf:li>
               <rdf:li>database</rdf:li>
               <rdf:li>connection</rdf:li>
               <rdf:li>file</rdf:li>
               <rdf:li>synchronization</rdf:li>
               <rdf:li>data</rdf:li>
               <rdf:li>connect</rdf:li>
               <rdf:li>internet</rdf:li>
               <rdf:li>cloud</rdf:li>
               <rdf:li>server</rdf:li>
               <rdf:li>computing</rdf:li>
               <rdf:li>technology</rdf:li>
               <rdf:li>business</rdf:li>
               <rdf:li>hosting</rdf:li>
               <rdf:li>storage</rdf:li>
               <rdf:li>computer</rdf:li>
               <rdf:li>communication</rdf:li>
               <rdf:li>network</rdf:li>
               <rdf:li>virtual</rdf:li>
               <rdf:li>website</rdf:li>
               <rdf:li>backup</rdf:li>
               <rdf:li>service</rdf:li>
               <rdf:li>servers</rdf:li>
               <rdf:li>web</rdf:li>
               <rdf:li>safety</rdf:li>
               <rdf:li>system</rdf:li>
               <rdf:li>drive</rdf:li>
               <rdf:li>flat</rdf:li>
               <rdf:li>vector</rdf:li>
               <rdf:li>sign</rdf:li>
               <rdf:li>responsive</rdf:li>
               <rdf:li>line</rdf:li>
               <rdf:li>icon</rdf:li>
               <rdf:li>icon set</rdf:li>
               <rdf:li>icons</rdf:li>
               <rdf:li>color line</rdf:li>
               <rdf:li>background</rdf:li>
            </rdf:Bag>
         </dc:subject>
         <xmp:MetadataDate>2017-04-08T00:09:18+03:00</xmp:MetadataDate>
         <xmpMM:InstanceID>xmp.iid:c8839b98-5c13-462b-ac0d-9f99c88ed0e5</xmpMM:InstanceID>
         <xmpMM:DocumentID>xmp.did:9a449b8f-7d65-4706-9954-9c256419b59d</xmpMM:DocumentID>
         <xmpMM:OriginalDocumentID>xmp.did:9a449b8f-7d65-4706-9954-9c256419b59d</xmpMM:OriginalDocumentID>
         <xmpMM:History>
            <rdf:Seq>
               <rdf:li>
                  <rdf:Description>
                     <stEvt:action>saved</stEvt:action>
                     <stEvt:instanceID>xmp.iid:9a449b8f-7d65-4706-9954-9c256419b59d</stEvt:instanceID>
                     <stEvt:when>2017-04-07T23:54:53+03:00</stEvt:when>
                     <stEvt:softwareAgent>Adobe Bridge CC 2015 (Macintosh)</stEvt:softwareAgent>
                     <stEvt:changed>/metadata</stEvt:changed>
                  </rdf:Description>
               </rdf:li>
               <rdf:li>
                  <rdf:Description>
                     <stEvt:action>saved</stEvt:action>
                     <stEvt:instanceID>xmp.iid:c8839b98-5c13-462b-ac0d-9f99c88ed0e5</stEvt:instanceID>
                     <stEvt:when>2017-04-08T00:09:18+03:00</stEvt:when>
                     <stEvt:softwareAgent>Adobe Bridge CC 2015 (Macintosh)</stEvt:softwareAgent>
                     <stEvt:changed>/metadata</stEvt:changed>
                  </rdf:Description>
               </rdf:li>
            </rdf:Seq>
         </xmpMM:History>
      </rdf:Description>
   </rdf:RDF>
</x:xmpmeta>
                                                                                                    
                                                                                                    
                                                                                                    
                                                                                                    
                                                                                                    
                                                                                                    
                                                                                                    
                                                                                                    
                                                                                                    
                                                                                                    
                                                                                                    
                                                                                                    
                                                                                                    
                                                                                                    
                                                                                                    
                                                                                                    
                                                                                                    
                                                                                                    
                                                                                                    
                                                                                                    
                           
<?xpacket end="w"?></metadata>
<g id="Layer_5">
	<g>
		<g>
			<path class="st0" d="M96.5,4C74,4.1,55.2,21.3,53.2,43.7l-0.2,2.3l-2.3,0.4c-12.2,2-20.4,13.4-18.4,25.6
				c1.7,10.8,11.1,18.7,22,18.7h84.3c15.1,0,27.4-12.2,27.4-27.4c0-14.4-11.2-26.4-25.6-27.3l-2-0.1l-0.6-1.9
				C132,16.1,115.3,4,96.5,4z"/>
			<path class="st1" d="M178.7,89l-28-12l12.2,29.6l4.8-9.7l7.1,7.1l2.9-2.7l-7.3-7.3L178.7,89z"/>
			<rect x="54.3" y="92.8" class="st2" width="31.7" height="2"/>
			<path class="st2" d="M30,68.5h-2C27.9,55.8,36.9,45,49.3,42.6c2.6-26,25.8-45,51.9-42.4c9.9,1,19.2,5.1,26.6,11.6l-1.3,1.5
				c-18.8-16.6-47.5-14.8-64,4C56,24.7,52.1,33.9,51.3,43.6l-0.1,0.8l-0.8,0.1C38.6,46.3,29.9,56.5,30,68.5z"/>
			<path class="st2" d="M167.7,75.2l-1.9-0.7c5-12.4,1-26.7-9.8-34.6l1.2-1.6C168.8,46.6,173.1,61.9,167.7,75.2L167.7,75.2z"/>
			<path class="st2" d="M138.6,94.8H106v-2h32.6c3,0,5.9-0.4,8.7-1.3l0.6,1.9C144.9,94.3,141.8,94.8,138.6,94.8z"/>
			<g>
				<g>
					<circle class="st0" cx="33.5" cy="35.3" r="2"/>
					<path class="st0" d="M33.5,37.8c-1.4,0-2.5-1.1-2.5-2.5s1.1-2.5,2.5-2.5s2.5,1.1,2.5,2.5C36,36.7,34.9,37.8,33.5,37.8z
						 M33.5,33.8c-0.8,0-1.5,0.7-1.5,1.5s0.7,1.5,1.5,1.5s1.5-0.7,1.5-1.5C35,34.5,34.3,33.8,33.5,33.8z"/>
				</g>
				<circle class="st3" cx="188.6" cy="121.4" r="2.4"/>
			</g>
			<g>
				<path class="st4" d="M168.7,79l-28-12L153,96.6l4.8-9.7l8.1,8.1l2.8-2.8l-8.2-8.2L168.7,79z"/>
				<path class="st5" d="M152.9,99l-14-33.9l32.1,13.7l-8.8,5.3l8,8l-4.2,4.2l-7.8-7.8L152.9,99z M142.6,68.9l10.5,25.3l4.5-9
					l8.4,8.4l1.4-1.4l-8.4-8.4l7.7-4.6L142.6,68.9z"/>
			</g>
			<g>
				<g>
					<path class="st5" d="M88,64.8c-1.7,0-3-1.3-3-3v-4c0-1.7,1.3-3,3-3s3,1.3,3,3v4C91,63.4,89.7,64.8,88,64.8z M88,56.8
						c-0.6,0-1,0.4-1,1v4c0,0.6,0.4,1,1,1s1-0.4,1-1v-4C89,57.2,88.6,56.8,88,56.8L88,56.8z"/>
					<g>
						<polygon class="st5" points="95,51.8 93,51.8 93,44.8 92,44.8 92,42.8 95,42.8 						"/>
						<rect x="92" y="50.8" class="st5" width="4" height="2"/>
					</g>
					<g>
						<polygon class="st5" points="103,62.8 101,62.8 101,55.8 100,55.8 100,53.8 103,53.8 						"/>
						<rect x="100" y="61.8" class="st5" width="4" height="2"/>
					</g>
					<path class="st5" d="M84,48.8c-1.7,0-3-1.3-3-3v-4c0-1.7,1.3-3,3-3s3,1.3,3,3v4C87,47.4,85.7,48.8,84,48.8z M84,40.8
						c-0.6,0-1,0.4-1,1v4c0,0.6,0.4,1,1,1s1-0.4,1-1v-4C85,41.2,84.6,40.8,84,40.8L84,40.8z"/>
					<g>
						<polygon class="st5" points="103,39.8 101,39.8 101,32.8 100,32.8 100,30.8 103,30.8 						"/>
						<rect x="100" y="38.8" class="st5" width="4" height="2"/>
					</g>
					<path class="st5" d="M92,36.8c-1.7,0-3-1.3-3-3v-4c0-1.7,1.3-3,3-3s3,1.3,3,3l0,0v4C95,35.4,93.7,36.8,92,36.8z M92,28.8
						c-0.6,0-1,0.4-1,1v4c0,0.6,0.4,1,1,1s1-0.4,1-1v-4C93,29.2,92.6,28.8,92,28.8L92,28.8z"/>
					<path class="st5" d="M108,52.8c-1.7,0-3-1.3-3-3v-4c0-1.7,1.3-3,3-3s3,1.3,3,3v4C111,51.4,109.7,52.8,108,52.8z M108,44.8
						c-0.6,0-1,0.4-1,1v4c0,0.6,0.4,1,1,1s1-0.4,1-1v-4C109,45.2,108.6,44.8,108,44.8L108,44.8z"/>
					<path class="st5" d="M100,24.8c-1.7,0-3-1.3-3-3v-4c0-1.7,1.3-3,3-3c1.7,0,3,1.3,3,3v4C103,23.4,101.7,24.8,100,24.8z
						 M100,16.8c-0.6,0-1,0.4-1,1v4c0,0.6,0.4,1,1,1s1-0.4,1-1v-4C101,17.2,100.6,16.8,100,16.8L100,16.8z"/>
					<g>
						<polygon class="st5" points="84,27.8 82,27.8 82,20.8 81,20.8 81,18.8 84,18.8 						"/>
						<rect x="81" y="26.8" class="st5" width="4" height="2"/>
					</g>
					<g>
						<polygon class="st5" points="78,59.8 76,59.8 76,52.8 75,52.8 75,50.8 78,50.8 						"/>
						<rect x="75" y="58.8" class="st5" width="4" height="2"/>
					</g>
					<g>
						<polygon class="st5" points="111,33.8 109,33.8 109,26.8 108,26.8 108,24.8 111,24.8 						"/>
						<rect x="108" y="32.8" class="st5" width="4" height="2"/>
					</g>
					<g>
						<polygon class="st5" points="118,57.8 116,57.8 116,50.8 115,50.8 115,48.8 118,48.8 						"/>
						<rect x="115" y="56.8" class="st5" width="4" height="2"/>
					</g>
				</g>
				<g>
					<g>
						<g>
							<rect x="95" y="90.8" class="st2" width="2" height="2"/>
							<rect x="95" y="86.8" class="st2" width="2" height="2"/>
						</g>
						<rect x="95" y="82.7" class="st2" width="2" height="2"/>
						<rect x="95" y="78.7" class="st2" width="2" height="2"/>
						<rect x="95" y="74.7" class="st2" width="2" height="2"/>
						<rect x="95" y="98.8" class="st2" width="2" height="2"/>
						<rect x="95" y="94.8" class="st2" width="2" height="2"/>
						<rect x="95" y="70.7" class="st2" width="2" height="2"/>
						<rect x="95" y="66.7" class="st2" width="2" height="2"/>
					</g>
					<g>
						<g>
							<rect x="89" y="90.8" class="st2" width="2" height="2"/>
							<rect x="89" y="86.8" class="st2" width="2" height="2"/>
						</g>
						<rect x="89" y="82.7" class="st2" width="2" height="2"/>
						<rect x="89" y="78.7" class="st2" width="2" height="2"/>
						<rect x="89" y="74.7" class="st2" width="2" height="2"/>
						<rect x="89" y="98.8" class="st2" width="2" height="2"/>
						<rect x="89" y="94.8" class="st2" width="2" height="2"/>
						<rect x="89" y="70.7" class="st2" width="2" height="2"/>
					</g>
					<g>
						<g>
							<rect x="101" y="90.8" class="st2" width="2" height="2"/>
							<rect x="101" y="86.8" class="st2" width="2" height="2"/>
						</g>
						<rect x="101" y="82.7" class="st2" width="2" height="2"/>
						<rect x="101" y="78.7" class="st2" width="2" height="2"/>
						<rect x="101" y="74.7" class="st2" width="2" height="2"/>
						<rect x="101" y="98.8" class="st2" width="2" height="2"/>
						<rect x="101" y="94.8" class="st2" width="2" height="2"/>
						<rect x="101" y="70.7" class="st2" width="2" height="2"/>
						<rect x="105" y="70.7" class="st2" width="2" height="2"/>
						<rect x="109" y="70.7" class="st2" width="2" height="2"/>
						<rect x="113" y="70.7" class="st2" width="2" height="2"/>
						<rect x="77" y="70.7" class="st2" width="2" height="2"/>
						<rect x="81" y="70.7" class="st2" width="2" height="2"/>
						<rect x="85" y="70.7" class="st2" width="2" height="2"/>
					</g>
				</g>
			</g>
		</g>
		<g>
			<path class="st2" d="M38.9,101.8h-6.2l-2-4.6L28.5,96l-5,0.5l-3.1-5.4l3-4.1v-2.5l-3-4.1l3.1-5.4l5,0.5l2.2-1.2l2-4.6h6.2l2,4.6
				l2.2,1.2l5-0.5l3.1,5.4l-3,4.1v2.5l3,4.1l-3.1,5.4l-5-0.5l-2.2,1.2L38.9,101.8z M34,99.8h3.6l1.8-4l3.3-1.9l4.4,0.5l1.8-3.1
				l-2.6-3.5v-3.8l2.6-3.5L47,77.3l-4.4,0.5l-3.3-1.9l-1.8-4H34l-1.8,4L29,77.8l-4.4-0.5l-1.8,3.1l2.6,3.5v3.8l-2.6,3.5l1.8,3.1
				l4.4-0.5l3.3,1.9L34,99.8z"/>
			<path class="st2" d="M35.8,89.8c-2.2,0-4-1.8-4-4s1.8-4,4-4c2.2,0,4,1.8,4,4C39.8,88,38,89.8,35.8,89.8z M35.8,83.8
				c-1.1,0-2,0.9-2,2s0.9,2,2,2s2-0.9,2-2C37.8,84.7,36.9,83.8,35.8,83.8z"/>
			<path class="st2" d="M35.8,93.8c-4.4,0-8-3.6-8-8s3.6-8,8-8s8,3.6,8,8C43.8,90.2,40.2,93.8,35.8,93.8z M35.8,79.8
				c-3.3,0-6,2.7-6,6s2.7,6,6,6c3.3,0,6-2.7,6-6l0,0C41.8,82.5,39.1,79.8,35.8,79.8z"/>
		</g>
		<circle class="st3" cx="159.1" cy="16.7" r="4"/>
		<g>
			<rect x="6" y="97.8" class="st5" width="2" height="4"/>
			<rect x="6" y="107.8" class="st5" width="2" height="4"/>
			<rect x="10" y="103.8" class="st5" width="4" height="2"/>
			<rect y="103.8" class="st5" width="4" height="2"/>
		</g>
		<g>
			<rect x="184" y="63.8" class="st5" width="2" height="4"/>
			<rect x="184" y="73.8" class="st5" width="2" height="4"/>
			<rect x="188" y="69.8" class="st5" width="4" height="2"/>
			<rect x="178" y="69.8" class="st5" width="4" height="2"/>
		</g>
		<g>
			<rect x="166" y="131.8" class="st5" width="2" height="4"/>
			<rect x="166" y="141.8" class="st5" width="2" height="4"/>
			<rect x="170" y="137.8" class="st5" width="4" height="2"/>
			<rect x="160" y="137.8" class="st5" width="4" height="2"/>
		</g>
		<g>
			<path class="st2" d="M134,126.8H58c-2.8,0-5-2.2-5-5v-14c0-2.8,2.2-5,5-5h76c2.8,0,5,2.2,5,5v14C139,124.5,136.8,126.8,134,126.8
				z M58,104.8c-1.7,0-3,1.3-3,3v14c0,1.7,1.3,3,3,3h76c1.7,0,3-1.3,3-3v-14c0-1.7-1.3-3-3-3H58z"/>
			<path class="st1" d="M58,106.8c-0.6,0-1,0.4-1,1v14c0,0.6,0.4,1,1,1h76c0.6,0,1-0.4,1-1v-14c0-0.6-0.4-1-1-1H58z"/>
			<path class="st2" d="M129,118.8c-2.2,0-4-1.8-4-4s1.8-4,4-4s4,1.8,4,4C133,117,131.2,118.8,129,118.8z M129,112.8
				c-1.1,0-2,0.9-2,2s0.9,2,2,2s2-0.9,2-2C131,113.7,130.1,112.8,129,112.8z"/>
			<path class="st2" d="M119,118.8c-2.2,0-4-1.8-4-4s1.8-4,4-4s4,1.8,4,4C123,117,121.2,118.8,119,118.8z M119,112.8
				c-1.1,0-2,0.9-2,2s0.9,2,2,2s2-0.9,2-2C121,113.7,120.1,112.8,119,112.8z"/>
			<path class="st2" d="M109,118.8c-2.2,0-4-1.8-4-4s1.8-4,4-4s4,1.8,4,4C113,117,111.2,118.8,109,118.8z M109,112.8
				c-1.1,0-2,0.9-2,2s0.9,2,2,2s2-0.9,2-2C111,113.7,110.1,112.8,109,112.8z"/>
			<path class="st2" d="M134,152.8H58c-2.8,0-5-2.2-5-5v-14c0-2.8,2.2-5,5-5h76c2.8,0,5,2.2,5,5v14C139,150.5,136.8,152.8,134,152.8
				z M58,130.8c-1.7,0-3,1.3-3,3v14c0,1.7,1.3,3,3,3h76c1.7,0,3-1.3,3-3v-14c0-1.7-1.3-3-3-3H58z"/>
			<path class="st1" d="M58,132.8c-0.6,0-1,0.4-1,1v14c0,0.6,0.4,1,1,1h76c0.6,0,1-0.4,1-1v-14c0-0.6-0.4-1-1-1H58z"/>
			<path class="st2" d="M129,144.8c-2.2,0-4-1.8-4-4s1.8-4,4-4s4,1.8,4,4C133,143,131.2,144.8,129,144.8z M129,138.8
				c-1.1,0-2,0.9-2,2s0.9,2,2,2s2-0.9,2-2C131,139.7,130.1,138.8,129,138.8z"/>
			<path class="st2" d="M119,144.8c-2.2,0-4-1.8-4-4s1.8-4,4-4s4,1.8,4,4C123,143,121.2,144.8,119,144.8z M119,138.8
				c-1.1,0-2,0.9-2,2s0.9,2,2,2s2-0.9,2-2C121,139.7,120.1,138.8,119,138.8z"/>
			<path class="st2" d="M109,144.8c-2.2,0-4-1.8-4-4s1.8-4,4-4s4,1.8,4,4C113,143,111.2,144.8,109,144.8z M109,138.8
				c-1.1,0-2,0.9-2,2s0.9,2,2,2s2-0.9,2-2C111,139.7,110.1,138.8,109,138.8z"/>
			<path class="st2" d="M134,178.8H58c-2.8,0-5-2.2-5-5v-14c0-2.8,2.2-5,5-5h76c2.8,0,5,2.2,5,5v14C139,176.5,136.8,178.8,134,178.8
				z M58,156.8c-1.7,0-3,1.3-3,3v14c0,1.7,1.3,3,3,3h76c1.7,0,3-1.3,3-3v-14c0-1.7-1.3-3-3-3H58z"/>
			<path class="st1" d="M58,158.8c-0.6,0-1,0.4-1,1v14c0,0.6,0.4,1,1,1h76c0.6,0,1-0.4,1-1v-14c0-0.6-0.4-1-1-1H58z"/>
			<path class="st2" d="M129,170.8c-2.2,0-4-1.8-4-4s1.8-4,4-4s4,1.8,4,4C133,169,131.2,170.8,129,170.8z M129,164.8
				c-1.1,0-2,0.9-2,2s0.9,2,2,2s2-0.9,2-2C131,165.7,130.1,164.8,129,164.8z"/>
			<path class="st2" d="M119,170.8c-2.2,0-4-1.8-4-4s1.8-4,4-4s4,1.8,4,4C123,169,121.2,170.8,119,170.8z M119,164.8
				c-1.1,0-2,0.9-2,2s0.9,2,2,2s2-0.9,2-2C121,165.7,120.1,164.8,119,164.8z"/>
			<path class="st2" d="M109,170.8c-2.2,0-4-1.8-4-4s1.8-4,4-4s4,1.8,4,4C113,169,111.2,170.8,109,170.8z M109,164.8
				c-1.1,0-2,0.9-2,2s0.9,2,2,2s2-0.9,2-2C111,165.7,110.1,164.8,109,164.8z"/>
		</g>
		<g>
			<g>
				<path class="st2" d="M143,44.7c-2.7-2.7-2.7-7.2,0-9.9c1.3-1.3,3-2,4.8-2l3.2,0l-2.2,4.4l-1.8-0.9l0.8-1.6
					c-2.8,0.1-4.9,2.4-4.9,5.1c0,1.3,0.6,2.5,1.5,3.4L143,44.7z"/>
				<path class="st2" d="M146.3,46.8h-1.7l2.5-4.3l1.7,1l-0.7,1.3c1.3,0.1,2.5-0.4,3.4-1.2c1.9-1.9,2-5.1,0-7.1c0,0,0,0,0,0l1.4-1.4
					c2.7,2.7,2.7,7.1,0,9.9c0,0,0,0,0,0c-1.3,1.2-3.1,1.9-4.8,1.8L146.3,46.8z"/>
			</g>
			<g>
				<polygon class="st2" points="139,46.8 126,46.8 126,14.8 143.4,14.8 152,23.4 152,28.8 150,28.8 150,24.2 142.5,16.8 128,16.8 
					128,44.8 139,44.8 				"/>
				<polygon class="st2" points="151,24.8 142,24.8 142,15.8 144,15.8 144,22.8 151,22.8 				"/>
			</g>
		</g>
	</g>
</g>
</svg>
